<?xml version="1.0" encoding="UTF-8" standalone="no"?>
<!-- Created with Inkscape (http://www.inkscape.org/) -->

<svg
   width="210mm"
   height="297mm"
   viewBox="0 0 210 297"
   version="1.1"
   id="svg5"
   xml:space="preserve"
   inkscape:export-filename="mind_line.svg"
   inkscape:export-xdpi="96"
   inkscape:export-ydpi="96"
   xmlns:inkscape="http://www.inkscape.org/namespaces/inkscape"
   xmlns:sodipodi="http://sodipodi.sourceforge.net/DTD/sodipodi-0.dtd"
   xmlns="http://www.w3.org/2000/svg"
   xmlns:svg="http://www.w3.org/2000/svg"><sodipodi:namedview
     id="namedview7"
     pagecolor="#ffffff"
     bordercolor="#000000"
     borderopacity="0.25"
     inkscape:showpageshadow="2"
     inkscape:pageopacity="0.0"
     inkscape:pagecheckerboard="0"
     inkscape:deskcolor="#d1d1d1"
     inkscape:document-units="mm"
     showgrid="false"
     inkscape:zoom="1.0544998"
     inkscape:cx="302.03895"
     inkscape:cy="495.96976"
     inkscape:window-width="1920"
     inkscape:window-height="1017"
     inkscape:window-x="1912"
     inkscape:window-y="-8"
     inkscape:window-maximized="1"
     inkscape:current-layer="layer1" /><defs
     id="defs2"><inkscape:path-effect
       effect="bspline"
       id="path-effect5525"
       is_visible="true"
       lpeversion="1"
       weight="33.333333"
       steps="2"
       helper_size="0"
       apply_no_weight="true"
       apply_with_weight="true"
       only_selected="false" /><inkscape:path-effect
       effect="bspline"
       id="path-effect5525-3"
       is_visible="true"
       lpeversion="1"
       weight="33.333333"
       steps="2"
       helper_size="0"
       apply_no_weight="true"
       apply_with_weight="true"
       only_selected="false" /></defs><g
     inkscape:label="Warstwa 1"
     inkscape:groupmode="layer"
     id="layer1-5"
     transform="translate(64.058154,39.516464)"><path
       style="fill:#000000;fill-opacity:0;stroke:#000000;stroke-width:1;stroke-linecap:square;stroke-dashoffset:0.226772;stroke-opacity:0"
       d="M 46.48387,162.69355 46.306451,59.790321 149.56451,60.322581 130.75806,78.774194 65.645161,78.951613 65.999999,143.8871 Z"
       id="path1642-1" /><path
       style="fill:#000000;fill-opacity:0;stroke:#000000;stroke-width:1;stroke-linecap:square;stroke-dashoffset:0.226772;stroke-opacity:0"
       d="M 46.669047,162.33803 46.418137,59.967216 149.29077,60.469033 130.72351,79.03629 H 65.73812 l -0.250909,63.73085 z"
       id="path2542-1" /><path
       style="fill:#000000;fill-opacity:0;stroke:#000000;stroke-width:1;stroke-linecap:square;stroke-dashoffset:0.226772;stroke-opacity:0"
       d="M 46.669047,163.34166 46.919956,59.716307 148.28713,60.218126 130.72351,78.78538 65.73812,79.538107 65.487211,144.77441 Z"
       id="path3280-2" /><path
       style="fill:#000000;fill-opacity:0;stroke:#000000;stroke-width:1;stroke-linecap:square;stroke-dashoffset:0.226772;stroke-opacity:0"
       d="M 46.669047,163.09075 V 59.716307 l 102.119903,1.254545 -17.0618,17.563619 -66.239939,1.756362 -0.250908,60.469037 z"
       id="path3282-9" /><path
       style="fill:#000000;fill-opacity:0;stroke:#000000;stroke-width:1;stroke-linecap:square;stroke-dashoffset:0.226772;stroke-opacity:0"
       d="M 46.919956,162.58894 46.669047,59.716307 149.03986,59.967216 130.72351,79.03629 65.98903,79.287197 65.73812,143.77077 Z"
       id="path4010-6" /><path
       style="fill:#000000;fill-opacity:0;stroke:#000000;stroke-width:1;stroke-linecap:square;stroke-dashoffset:0.226772;stroke-opacity:0"
       d="M 46.669047,162.33803 V 59.716307 L 149.29077,60.218126 130.4726,79.03629 65.73812,79.287197 65.236303,143.51986 Z"
       id="path4012-6" /><path
       style="fill:#000000;fill-opacity:0;stroke:#000000;stroke-width:1;stroke-linecap:square;stroke-dashoffset:0.226772;stroke-opacity:0"
       d="m 151.6744,165.7253 -94.184909,-0.28227 -11.102715,-2.50909 0.07492,-103.021643 103.268164,0.274465 1.97591,11.698624 z"
       id="path4014-5" /><path
       style="fill:#000000;fill-opacity:0;stroke:#000000;stroke-width:1;stroke-linecap:square;stroke-dashoffset:0.226772;stroke-opacity:0"
       d="M 88.177419,125.79032 88,103.08064 l 23.06451,-0.88709 0.53226,23.77419 z"
       id="path4028-8" /><path
       style="fill:#000000;fill-opacity:0;stroke:#000000;stroke-width:1;stroke-linecap:square;stroke-dashoffset:0.226772;stroke-opacity:0"
       d="m 82.14516,120.1129 c 0,-1.06451 -0.354838,-22.354836 -0.354838,-22.354836 l 22.532258,0.354838 -0.8871,21.467738 -20.403222,-0.17742 z"
       id="path4030-2" /><path
       style="fill:#000000;fill-opacity:0;stroke:#000000;stroke-width:1;stroke-linecap:square;stroke-dashoffset:0.226772;stroke-opacity:0"
       d="M 39.919354,157.54838 58.725805,138.3871 67.774192,143 50.564515,159.85484 Z"
       id="path4032-7" /><path
       style="fill:#000000;fill-opacity:0;stroke:#000000;stroke-width:1;stroke-linecap:square;stroke-dashoffset:0.226772;stroke-opacity:0"
       d="M 39.741935,157.37097 59.080645,138.3871 58.903226,73.806451 H 123.30645 L 142.82258,55 40.096773,55.532257 Z"
       id="path4043-5" /><path
       style="fill:#000000;fill-opacity:0;stroke:#000000;stroke-width:1;stroke-linecap:square;stroke-dashoffset:0.226772;stroke-opacity:0"
       d="M 82.14516,120.46774 H 104.5 l 0.35484,-22.532257 -22.70968,-0.354838 z"
       id="path4045-0" /><path
       style="fill:#000000;fill-opacity:0;stroke:#000000;stroke-width:1;stroke-linecap:square;stroke-dashoffset:0.226772;stroke-opacity:0"
       d="m 39.741935,157.19355 18.89516,-18.89516 V 73.806451 h 64.846775 l 18.89516,-18.89516 H 39.564516 Z m 11.532259,2.66129 17.032258,-16.5 58.725808,-0.17742 0.17742,-59.080646 17.56451,-17.741935 V 160.56452 Z M 81.258065,120.1129 104.5,120.64516 V 97.403226 l -23.241935,0.177419 z"
       id="path4047-3" /><path
       style="fill:#000000;fill-opacity:0;stroke:#000000;stroke-width:1;stroke-linecap:square;stroke-dashoffset:0.226772;stroke-opacity:0"
       d="M 40.145417,157.06894 V 55.701765 l 98.858093,-0.501816 -12.04363,18.065437 c 0,0 -68.749026,-4.51636 -68.247209,0 0.501819,4.516358 1.003636,64.734484 1.003636,64.734484 z m 14.050896,3.51273 13.549079,-16.55999 58.210858,-1.00363 2.50909,-61.72358 14.55271,-13.047261 2.50909,90.829011 z m 26.094521,-42.15269 23.585436,3.01091 -0.50182,-19.06908 -17.563621,-4.014538 z"
       id="path4049-9" /><path
       style="fill:#000000;fill-opacity:0;stroke:#000000;stroke-width:1;stroke-linecap:square;stroke-dashoffset:0.226772;stroke-opacity:0"
       d="M 40.396326,156.56712 59.21449,137.99987 58.712671,74.269022 124.19988,74.018113 143.01805,55.701765 40.647233,54.698129 Z"
       id="path4060-8" /><path
       style="fill:#000000;fill-opacity:0;stroke:#000000;stroke-width:1;stroke-linecap:square;stroke-dashoffset:0.226772;stroke-opacity:0"
       d="M 56.861903,72.069444 C 74.049292,55.007511 108.5338,55.10373 122.47223,58.288261 c 13.93842,3.184531 7.33129,9.457124 -6.63605,12.50985 -13.96735,3.052727 -35.294171,2.885457 -46.04157,13.674887 -10.747398,10.789429 -10.914668,32.534432 -14.134726,46.543442 -3.220059,14.009 -9.492652,20.2816 -12.684014,6.30784 -3.191361,-13.97376 -3.301356,-48.192902 13.886033,-65.254836 z"
       id="path5523-1"
       inkscape:path-effect="#path-effect5525-3"
       inkscape:original-d="m 39.564516,54.911291 c 34.484775,0.09648 68.969284,0.192701 103.453534,0.288658 -6.60714,6.273112 -13.21427,12.545705 -19.8218,18.818164 C 101.86883,73.8511 80.542007,73.683833 59.21449,73.516293 59.047477,95.262429 58.88021,117.00743 58.712671,138.7526 52.440091,145.02571 46.167495,151.2983 39.894507,157.57076 39.784774,123.35052 39.674778,89.131377 39.564516,54.911291 Z" /><path
       style="fill:#000000;fill-opacity:0;stroke:#000000;stroke-width:2;stroke-linecap:square;stroke-dasharray:none;stroke-dashoffset:0.226772;stroke-opacity:0"
       d="m 39.6436,54.949039 102.87263,0.25091 -19.06907,18.065437 -64.48358,0.501817 -0.250909,64.483577 -18.818164,18.81816 z"
       id="path7549-6" /></g><g
     inkscape:label="Warstwa 1"
     inkscape:groupmode="layer"
     id="layer1"><path
       style="fill:#000000;fill-opacity:0;stroke:#000000;stroke-width:1;stroke-linecap:square;stroke-dashoffset:0.226772;stroke-opacity:0"
       d="M 46.48387,162.69355 46.306451,59.790321 149.56451,60.322581 130.75806,78.774194 65.645161,78.951613 65.999999,143.8871 Z"
       id="path1642" /><path
       style="fill:#000000;fill-opacity:0;stroke:#000000;stroke-width:1;stroke-linecap:square;stroke-dashoffset:0.226772;stroke-opacity:0"
       d="M 46.669047,162.33803 46.418137,59.967216 149.29077,60.469033 130.72351,79.03629 H 65.73812 l -0.250909,63.73085 z"
       id="path2542" /><path
       style="fill:#000000;fill-opacity:0;stroke:#000000;stroke-width:1;stroke-linecap:square;stroke-dashoffset:0.226772;stroke-opacity:0"
       d="M 46.669047,163.34166 46.919956,59.716307 148.28713,60.218126 130.72351,78.78538 65.73812,79.538107 65.487211,144.77441 Z"
       id="path3280" /><path
       style="fill:#000000;fill-opacity:0;stroke:#000000;stroke-width:1;stroke-linecap:square;stroke-dashoffset:0.226772;stroke-opacity:0"
       d="M 46.669047,163.09075 V 59.716307 l 102.119903,1.254545 -17.0618,17.563619 -66.239939,1.756362 -0.250908,60.469037 z"
       id="path3282" /><path
       style="fill:#000000;fill-opacity:0;stroke:#000000;stroke-width:1;stroke-linecap:square;stroke-dashoffset:0.226772;stroke-opacity:0"
       d="M 46.919956,162.58894 46.669047,59.716307 149.03986,59.967216 130.72351,79.03629 65.98903,79.287197 65.73812,143.77077 Z"
       id="path4010" /><path
       style="fill:#000000;fill-opacity:0;stroke:#000000;stroke-width:1;stroke-linecap:square;stroke-dashoffset:0.226772;stroke-opacity:0"
       d="M 46.669047,162.33803 V 59.716307 L 149.29077,60.218126 130.4726,79.03629 65.73812,79.287197 65.236303,143.51986 Z"
       id="path4012" /><path
       style="fill:#000000;fill-opacity:0;stroke:#000000;stroke-width:1;stroke-linecap:square;stroke-dashoffset:0.226772;stroke-opacity:0"
       d="m 151.6744,165.7253 -94.184909,-0.28227 -11.102715,-2.50909 0.07492,-103.021643 103.268164,0.274465 1.97591,11.698624 z"
       id="path4014" /><path
       style="fill:#000000;fill-opacity:0;stroke:#000000;stroke-width:1;stroke-linecap:square;stroke-dashoffset:0.226772;stroke-opacity:0"
       d="M 88.177419,125.79032 88,103.08064 l 23.06451,-0.88709 0.53226,23.77419 z"
       id="path4028" /><path
       style="fill:#000000;fill-opacity:0;stroke:#000000;stroke-width:1;stroke-linecap:square;stroke-dashoffset:0.226772;stroke-opacity:0"
       d="m 82.14516,120.1129 c 0,-1.06451 -0.354838,-22.354836 -0.354838,-22.354836 l 22.532258,0.354838 -0.8871,21.467738 -20.403222,-0.17742 z"
       id="path4030" /><path
       style="fill:#000000;fill-opacity:0;stroke:#000000;stroke-width:1;stroke-linecap:square;stroke-dashoffset:0.226772;stroke-opacity:0"
       d="M 39.919354,157.54838 58.725805,138.3871 67.774192,143 50.564515,159.85484 Z"
       id="path4032" /><path
       style="fill:#000000;fill-opacity:0;stroke:#000000;stroke-width:1;stroke-linecap:square;stroke-dashoffset:0.226772;stroke-opacity:0"
       d="M 39.741935,157.37097 59.080645,138.3871 58.903226,73.806451 H 123.30645 L 142.82258,55 40.096773,55.532257 Z"
       id="path4043" /><path
       style="fill:#000000;fill-opacity:0;stroke:#000000;stroke-width:1;stroke-linecap:square;stroke-dashoffset:0.226772;stroke-opacity:0"
       d="M 82.14516,120.46774 H 104.5 l 0.35484,-22.532257 -22.70968,-0.354838 z"
       id="path4045" /><path
       style="fill:#000000;fill-opacity:0;stroke:#000000;stroke-width:1;stroke-linecap:square;stroke-dashoffset:0.226772;stroke-opacity:0"
       d="m 39.741935,157.19355 18.89516,-18.89516 V 73.806451 h 64.846775 l 18.89516,-18.89516 H 39.564516 Z m 11.532259,2.66129 17.032258,-16.5 58.725808,-0.17742 0.17742,-59.080646 17.56451,-17.741935 V 160.56452 Z M 81.258065,120.1129 104.5,120.64516 V 97.403226 l -23.241935,0.177419 z"
       id="path4047" /><path
       style="fill:#000000;fill-opacity:0;stroke:#000000;stroke-width:1;stroke-linecap:square;stroke-dashoffset:0.226772;stroke-opacity:0"
       d="M 40.145417,157.06894 V 55.701765 l 98.858093,-0.501816 -12.04363,18.065437 c 0,0 -68.749026,-4.51636 -68.247209,0 0.501819,4.516358 1.003636,64.734484 1.003636,64.734484 z m 14.050896,3.51273 13.549079,-16.55999 58.210858,-1.00363 2.50909,-61.72358 14.55271,-13.047261 2.50909,90.829011 z m 26.094521,-42.15269 23.585436,3.01091 -0.50182,-19.06908 -17.563621,-4.014538 z"
       id="path4049" /><path
       style="fill:#000000;fill-opacity:0;stroke:#000000;stroke-width:1;stroke-linecap:square;stroke-dashoffset:0.226772;stroke-opacity:0"
       d="M 40.396326,156.56712 59.21449,137.99987 58.712671,74.269022 124.19988,74.018113 143.01805,55.701765 40.647233,54.698129 Z"
       id="path4060" /><path
       style="fill:#000000;fill-opacity:0;stroke:#000000;stroke-width:1;stroke-linecap:square;stroke-dashoffset:0.226772;stroke-opacity:0"
       d="M 56.861903,72.069444 C 74.049292,55.007511 108.5338,55.10373 122.47223,58.288261 c 13.93842,3.184531 7.33129,9.457124 -6.63605,12.50985 -13.96735,3.052727 -35.294171,2.885457 -46.04157,13.674887 -10.747398,10.789429 -10.914668,32.534432 -14.134726,46.543442 -3.220059,14.009 -9.492652,20.2816 -12.684014,6.30784 -3.191361,-13.97376 -3.301356,-48.192902 13.886033,-65.254836 z"
       id="path5523"
       inkscape:path-effect="#path-effect5525"
       inkscape:original-d="m 39.564516,54.911291 c 34.484775,0.09648 68.969284,0.192701 103.453534,0.288658 -6.60714,6.273112 -13.21427,12.545705 -19.8218,18.818164 C 101.86883,73.8511 80.542007,73.683833 59.21449,73.516293 59.047477,95.262429 58.88021,117.00743 58.712671,138.7526 52.440091,145.02571 46.167495,151.2983 39.894507,157.57076 39.784774,123.35052 39.674778,89.131377 39.564516,54.911291 Z" /><path
       style="fill:#000000;fill-opacity:0;stroke:#000000;stroke-width:2;stroke-linecap:square;stroke-dasharray:none;stroke-dashoffset:0.226772;stroke-opacity:0"
       d="m 39.6436,54.949039 102.87263,0.25091 -19.06907,18.065437 -64.48358,0.501817 -0.250909,64.483577 -18.818164,18.81816 z"
       id="path7549" /><path
       style="fill:#c8ac6d;fill-opacity:1;stroke:#000000;stroke-width:0.499999;stroke-linecap:square;stroke-dasharray:none;stroke-dashoffset:0.226772;stroke-opacity:0"
       d="M 10.807334,30.851562 V 27.160884 L 27.102077,10.824365 h 3.751871 v 3.663034 l -16.34632,16.362628 z"
       id="path13450" /><path
       style="fill:#5c4621;fill-opacity:1;stroke:#000000;stroke-width:0.499999;stroke-linecap:square;stroke-dasharray:none;stroke-dashoffset:0.226772;stroke-opacity:0"
       d="m 18.00271,30.846106 2.901134,-2.908974 h 7.028615 V 20.86464 l 2.913647,-2.932498 v 12.908331 z"
       id="path16767" /><path
       style="fill:#5c4621;fill-opacity:1;stroke:#000000;stroke-width:0.499999;stroke-linecap:square;stroke-dasharray:none;stroke-dashoffset:0.226772;stroke-opacity:0"
       d="M 10.817036,23.674395 V 10.811492 h 12.840726 l -2.924647,2.91633 h -6.991432 v 6.985888 z"
       id="path17176" /></g></svg>
